<?xml version="1.0" standalone="no"?>
<!DOCTYPE svg PUBLIC "-//W3C//DTD SVG 20010904//EN"
 "http://www.w3.org/TR/2001/REC-SVG-20010904/DTD/svg10.dtd">
<svg version="1.0" xmlns="http://www.w3.org/2000/svg"
 width="16.000000pt" height="16.000000pt" viewBox="0 0 16.000000 16.000000"
 preserveAspectRatio="xMidYMid meet">
<metadata>
Created by potrace 1.11, written by Peter Selinger 2001-2013
</metadata>
<g transform="translate(0.000000,16.000000) scale(0.002286,-0.002286)"
fill="#000000" stroke="none">
<path d="M0 3500 l0 -3500 3500 0 3500 0 0 3500 0 3500 -3500 0 -3500 0 0
-3500z m1683 471 c265 -533 485 -970 488 -970 3 -1 221 436 484 969 l479 970
253 0 253 0 0 -1440 0 -1440 -180 0 -180 0 -2 1180 -3 1179 -492 -997 -492
-997 -122 0 -122 0 -496 1009 -496 1008 -3 -1191 -2 -1191 -180 0 -180 0 0
1440 0 1440 255 0 255 0 483 -969z m2769 304 l3 -666 643 666 643 665 246 0
247 0 -30 -32 c-28 -31 -969 -1003 -1141 -1179 l-84 -85 667 -790 666 -789
-223 -3 c-123 -1 -228 -1 -234 2 -6 2 -261 302 -565 667 l-554 662 -143 -149
-143 -149 0 -517 0 -518 -180 0 -180 0 0 1440 0 1440 180 0 180 0 2 -665z"/>
</g>
</svg>
