<?xml version="1.0" encoding="utf-8"?>
<!-- Generator: Adobe Illustrator 21.0.2, SVG Export Plug-In . SVG Version: 6.00 Build 0)  -->
<svg version="1.1" id="Ebene_1" xmlns="http://www.w3.org/2000/svg" xmlns:xlink="http://www.w3.org/1999/xlink" x="0px" y="0px"
	 viewBox="0 0 50 50" style="enable-background:new 0 0 50 50;" xml:space="preserve">
<style type="text/css">
	.st0{fill:none;stroke:#FC7C8B;stroke-width:2;stroke-miterlimit:10;}
	.st1{fill:#FC7C8B;}
</style>
<line class="st0" x1="14.4" y1="7" x2="35.6" y2="7"/>
<line class="st0" x1="7.5" y1="35.6" x2="7.5" y2="14.4"/>
<line class="st0" x1="35.6" y1="43" x2="14.3" y2="43"/>
<line class="st0" x1="43.5" y1="14.4" x2="43.5" y2="35.6"/>
<path class="st1" d="M14,36v13H1V36H14 M15,35H0v15h15V35L15,35z"/>
<path class="st1" d="M49,36v13H36V36H49 M50,35H35v15h15V35L50,35z"/>
<path class="st1" d="M14,1v13H1V1H14 M15,0H0v15h15V0L15,0z"/>
<path class="st1" d="M49,1v13H36V1H49 M50,0H35v15h15V0L50,0z"/>
</svg>
