<?xml version="1.0" encoding="utf-8"?>
<!-- Generator: Adobe Illustrator 21.0.2, SVG Export Plug-In . SVG Version: 6.00 Build 0)  -->
<svg version="1.1" id="Ebene_1" xmlns="http://www.w3.org/2000/svg" xmlns:xlink="http://www.w3.org/1999/xlink" x="0px" y="0px"
	 viewBox="0 0 50 50" style="enable-background:new 0 0 50 50;" xml:space="preserve">
<style type="text/css">
	.st0{fill:none;stroke:#FC7C8B;stroke-width:2;stroke-linecap:round;stroke-linejoin:round;stroke-miterlimit:10;}
</style>
<path class="st0" d="M21.1,4.2h-5.5c-3,0-5.4,2.4-5.4,5.4V19l-4.4,4.7l4.4,4.7v12.1c0,3,2.4,5.4,5.4,5.4h5"/>
<path class="st0" d="M28.9,4.2h5.5c3,0,5.4,2.4,5.4,5.4V19l4.4,4.7l-4.4,4.7v12.1c0,3-2.4,5.4-5.4,5.4h-5"/>
<path class="st0" d="M30,15h-7.7C21,15,20,16,20,17.3v4.6c0,1.3,1,2.3,2.3,2.3h5.4c1.3,0,2.3,1,2.3,2.3v6.2c0,1.3-1,2.3-2.3,2.3H20"
	/>
<line class="st0" x1="25" y1="11" x2="25" y2="39"/>
</svg>
